REM DIRINDEX 1\2,1\3,1\4,1\5
REM DIRNAME folder01,folder02,folder03,folder04,folder05
TITLE ""
FILE "1800_082.mp3" MP3
  TRACK 01 AUDIO
    TITLE "2:cjc044_2145"
    INDEX 01 00:00:00
  TRACK 02 AUDIO
    TITLE "0:"
    INDEX 01 00:01:13
  TRACK 03 AUDIO
    TITLE "3:cjc044_2146"
    INDEX 01 00:02:02
  TRACK 04 AUDIO
    TITLE "0:"
    INDEX 01 00:02:73
  TRACK 05 AUDIO
    TITLE "4:cjc044_2147"
    INDEX 01 00:03:59
  TRACK 06 AUDIO
    TITLE "0:"
    INDEX 01 00:05:07
  TRACK 07 AUDIO
    TITLE "5:cjc044_2148"
    INDEX 01 00:05:57
  TRACK 08 AUDIO
    TITLE "0:"
    INDEX 01 00:08:44
  TRACK 09 AUDIO
    TITLE "2:cjc044_2149"
    INDEX 01 00:10:25
  TRACK 10 AUDIO
    TITLE "0:"
    INDEX 01 00:11:46
  TRACK 11 AUDIO
    TITLE "3:cjc044_2150"
    INDEX 01 00:12:24
  TRACK 12 AUDIO
    TITLE "0:"
    INDEX 01 00:13:28
  TRACK 13 AUDIO
    TITLE "4:cjc044_2151"
    INDEX 01 00:14:13
  TRACK 14 AUDIO
    TITLE "0:"
    INDEX 01 00:15:34
  TRACK 15 AUDIO
    TITLE "5:cjc044_2152"
    INDEX 01 00:16:18
  TRACK 16 AUDIO
    TITLE "0:"
    INDEX 01 00:19:50
  TRACK 17 AUDIO
    TITLE "2:cjc044_2153"
    INDEX 01 00:21:35
  TRACK 18 AUDIO
    TITLE "0:"
    INDEX 01 00:22:56
  TRACK 19 AUDIO
    TITLE "3:cjc044_2154"
    INDEX 01 00:23:42
  TRACK 20 AUDIO
    TITLE "0:"
    INDEX 01 00:24:53
  TRACK 21 AUDIO
    TITLE "4:cjc044_2155"
    INDEX 01 00:25:39
  TRACK 22 AUDIO
    TITLE "0:"
    INDEX 01 00:26:62
  TRACK 23 AUDIO
    TITLE "5:cjc044_2156"
    INDEX 01 00:27:38
  TRACK 24 AUDIO
    TITLE "0:"
    INDEX 01 00:30:46
  TRACK 25 AUDIO
    TITLE "2:cjc044_2157"
    INDEX 01 00:32:33
  TRACK 26 AUDIO
    TITLE "0:"
    INDEX 01 00:33:64
  TRACK 27 AUDIO
    TITLE "3:cjc044_2158"
    INDEX 01 00:34:45
  TRACK 28 AUDIO
    TITLE "0:"
    INDEX 01 00:36:07
  TRACK 29 AUDIO
    TITLE "4:cjc044_2159"
    INDEX 01 00:36:72
  TRACK 30 AUDIO
    TITLE "0:"
    INDEX 01 00:38:31
  TRACK 31 AUDIO
    TITLE "5:cjc044_2160"
    INDEX 01 00:39:05
  TRACK 32 AUDIO
    TITLE "0:"
    INDEX 01 00:42:35
  TRACK 33 AUDIO
    TITLE "2:cjc044_2161"
    INDEX 01 00:44:22
  TRACK 34 AUDIO
    TITLE "0:"
    INDEX 01 00:45:39
  TRACK 35 AUDIO
    TITLE "3:cjc044_2162"
    INDEX 01 00:46:27
  TRACK 36 AUDIO
    TITLE "0:"
    INDEX 01 00:47:40
  TRACK 37 AUDIO
    TITLE "4:cjc044_2163"
    INDEX 01 00:48:20
  TRACK 38 AUDIO
    TITLE "0:"
    INDEX 01 00:49:35
  TRACK 39 AUDIO
    TITLE "5:cjc044_2164"
    INDEX 01 00:50:09
  TRACK 40 AUDIO
    TITLE "0:"
    INDEX 01 00:52:37
  TRACK 41 AUDIO
    TITLE "2:cjc044_2165"
    INDEX 01 00:54:19
  TRACK 42 AUDIO
    TITLE "0:"
    INDEX 01 00:55:20
  TRACK 43 AUDIO
    TITLE "3:cjc044_2166"
    INDEX 01 00:56:08
  TRACK 44 AUDIO
    TITLE "0:"
    INDEX 01 00:57:03
  TRACK 45 AUDIO
    TITLE "4:cjc044_2167"
    INDEX 01 00:57:64
  TRACK 46 AUDIO
    TITLE "0:"
    INDEX 01 00:58:67
  TRACK 47 AUDIO
    TITLE "5:cjc044_2168"
    INDEX 01 00:59:53
  TRACK 48 AUDIO
    TITLE "0:"
    INDEX 01 01:02:34
  TRACK 49 AUDIO
    TITLE "2:cjc044_2169"
    INDEX 01 01:04:23
  TRACK 50 AUDIO
    TITLE "0:"
    INDEX 01 01:05:40
  TRACK 51 AUDIO
    TITLE "3:cjc044_2170"
    INDEX 01 01:06:28
  TRACK 52 AUDIO
    TITLE "0:"
    INDEX 01 01:08:05
  TRACK 53 AUDIO
    TITLE "4:cjc044_2171"
    INDEX 01 01:08:70
  TRACK 54 AUDIO
    TITLE "0:"
    INDEX 01 01:10:14
  TRACK 55 AUDIO
    TITLE "5:cjc044_2172"
    INDEX 01 01:10:59
  TRACK 56 AUDIO
    TITLE "0:"
    INDEX 01 01:13:59
  TRACK 57 AUDIO
    TITLE "2:cjc044_2173"
    INDEX 01 01:15:42
  TRACK 58 AUDIO
    TITLE "0:"
    INDEX 01 01:16:50
  TRACK 59 AUDIO
    TITLE "3:cjc044_2174"
    INDEX 01 01:17:32
  TRACK 60 AUDIO
    TITLE "0:"
    INDEX 01 01:18:31
  TRACK 61 AUDIO
    TITLE "4:cjc044_2175"
    INDEX 01 01:19:19
  TRACK 62 AUDIO
    TITLE "0:"
    INDEX 01 01:20:26
  TRACK 63 AUDIO
    TITLE "5:cjc044_2176"
    INDEX 01 01:21:10
  TRACK 64 AUDIO
    TITLE "0:"
    INDEX 01 01:24:49
